<svg version="1.1" id="Layer_1" xmlns="http://www.w3.org/2000/svg" xmlns:xlink="http://www.w3.org/1999/xlink" x="0px" y="0px" viewBox="0 0 276.1 60.2" style="enable-background:new 0 0 276.1 60.2" xml:space="preserve">
    <style type="text/css">
        .st1{fill:#010101}
    </style>
    <g>
        <circle cx="27.9" cy="31.2" r="3.8" style="fill:#ff0201"/>
        <circle cx="38.9" cy="31.2" r="3.8"/>
        <circle cx="16.8" cy="31.2" r="3.8"/>
    </g>
    <path d="M27.9,5.8c-14,0-25.4,11.4-25.4,25.4c0,14,11.4,25.4,25.4,25.4s25.4-11.4,25.4-25.4C53.3,17.2,41.9,5.8,27.9,5.8z
                   M27.9,50.9C17,50.9,8.1,42.1,8.1,31.2S17,11.5,27.9,11.5s19.7,8.8,19.7,19.7S38.8,50.9,27.9,50.9z"/>
    <g>
        <path class="st1" d="M89.1,16.1H77.3v32h-7.9v-32H57.8V9.7h31.3V16.1z"/>
        <path class="st1" d="M86.4,33.6c0-2.8,0.5-5.4,1.6-7.6c1.1-2.2,2.7-3.9,4.7-5.1c2-1.2,4.4-1.8,7.1-1.8c3.8,0,7,1.2,9.4,3.5
                    c2.4,2.4,3.8,5.6,4.1,9.6l0.1,2c0,4.4-1.2,7.9-3.7,10.5c-2.4,2.6-5.7,4-9.8,4c-4.1,0-7.4-1.3-9.8-4c-2.5-2.6-3.7-6.2-3.7-10.8V33.6
                    z M94.1,34.1c0,2.7,0.5,4.8,1.5,6.2c1,1.4,2.5,2.2,4.4,2.2c1.8,0,3.3-0.7,4.3-2.1c1-1.4,1.6-3.7,1.6-6.8c0-2.7-0.5-4.7-1.6-6.2
                    c-1-1.5-2.5-2.2-4.4-2.2c-1.9,0-3.3,0.7-4.3,2.2C94.6,28.8,94.1,31,94.1,34.1z"/>
        <path class="st1" d="M128.5,36.6l-2.7,2.7v8.7h-7.6V7.6h7.6V30l1.5-1.9l7.3-8.6h9.1l-10.3,11.9l11.2,16.6h-8.8L128.5,36.6z"/>
        <path class="st1" d="M176.4,16.1h-11.8v32h-7.9v-32h-11.6V9.7h31.3V16.1z"/>
        <path class="st1" d="M173.7,33.6c0-2.8,0.5-5.4,1.6-7.6s2.7-3.9,4.7-5.1c2-1.2,4.4-1.8,7.1-1.8c3.8,0,7,1.2,9.4,3.5
                    c2.4,2.4,3.8,5.6,4.1,9.6l0.1,2c0,4.4-1.2,7.9-3.7,10.5c-2.4,2.6-5.7,4-9.8,4s-7.4-1.3-9.8-4c-2.5-2.6-3.7-6.2-3.7-10.8V33.6z
                     M181.4,34.1c0,2.7,0.5,4.8,1.5,6.2c1,1.4,2.5,2.2,4.4,2.2c1.8,0,3.3-0.7,4.3-2.1c1-1.4,1.6-3.7,1.6-6.8c0-2.7-0.5-4.7-1.6-6.2
                    c-1-1.5-2.5-2.2-4.4-2.2c-1.9,0-3.3,0.7-4.3,2.2C181.9,28.8,181.4,31,181.4,34.1z"/>
        <path class="st1" d="M230.3,37.7l3.7-18.2h7.4l-7.3,28.5h-6.4l-5.4-18l-5.4,18h-6.4l-7.3-28.5h7.4l3.7,18.1l5.2-18.1h5.5
                    L230.3,37.7z"/>
        <path class="st1" d="M252.2,19.5l0.2,3.3c2-2.5,4.8-3.8,8.2-3.8c3,0,5.3,0.9,6.8,2.7c1.5,1.8,2.2,4.4,2.3,8v18.4H262V29.8
                    c0-1.6-0.4-2.8-1.1-3.5c-0.7-0.7-1.9-1.1-3.5-1.1c-2.1,0-3.8,0.9-4.8,2.7v20.2H245V19.5H252.2z"/>
    </g>
</svg>

