<?xml version="1.0" encoding="iso-8859-1"?>
<!-- Generator: Adobe Illustrator 23.0.3, SVG Export Plug-In . SVG Version: 6.00 Build 0)  -->
<svg version="1.1" id="Layer_1" xmlns="http://www.w3.org/2000/svg" xmlns:xlink="http://www.w3.org/1999/xlink" x="0px" y="0px"
	 viewBox="1036.672 141 542.836 512" style="enable-background:new 1036.672 141 542.836 512;" xml:space="preserve">
<g>
	<circle style="fill:#CCDD20;" cx="1301.647" cy="395" r="248.262"/>
	<g>
		<path style="fill:#FFFFFF;" d="M1224.125,298.98l17.021,25.535c3.383,5.085,2.274,11.918-2.544,15.671l-20.958,16.302
			c-4.548,3.502-5.854,9.801-3.074,14.823c6.153,11.062,11.984,24.106,40.846,53.005s41.943,34.693,53.005,40.846
			c5.022,2.78,11.321,1.474,14.823-3.074l16.302-20.958c3.753-4.818,10.586-5.927,15.671-2.544l26.346,17.561l29.637,19.759
			c5.183,3.455,6.739,10.371,3.535,15.712l-14.044,23.41c-3.728,6.327-9.746,10.978-16.809,12.989
			c-23.341,6.402-74.824,7.697-157.341-74.82c-82.517-82.517-81.227-134.005-74.824-157.346c2.011-7.063,6.661-13.082,12.989-16.809
			l23.41-14.044c5.342-3.203,12.258-1.647,15.713,3.535L1224.125,298.98z"/>
		<path style="fill:#FFFFFF;" d="M1384.13,387.779c-2.546,0-4.609-2.064-4.609-4.609c-0.048-43.254-35.101-78.307-78.355-78.355
			c-2.546,0-4.609-2.064-4.609-4.609c0-2.546,2.063-4.609,4.609-4.609c48.343,0.053,87.52,39.23,87.573,87.573
			C1388.74,385.716,1386.676,387.779,1384.13,387.779z"/>
		<path style="fill:#FFFFFF;" d="M1356.476,387.779c-2.546,0-4.609-2.064-4.609-4.609c-0.033-27.987-22.713-50.667-50.7-50.7
			c-2.546,0-4.609-2.064-4.609-4.609c0-2.546,2.063-4.609,4.609-4.609c33.076,0.038,59.88,26.842,59.919,59.919
			C1361.085,385.716,1359.021,387.779,1356.476,387.779z"/>
		<path style="fill:#FFFFFF;" d="M1328.821,387.779c-2.546,0-4.609-2.064-4.609-4.609c-0.015-12.721-10.324-23.03-23.046-23.046
			c-2.546,0-4.609-2.064-4.609-4.609c0-2.546,2.063-4.609,4.609-4.609c17.81,0.02,32.244,14.453,32.264,32.264
			C1333.43,385.716,1331.367,387.779,1328.821,387.779z"/>
	</g>
</g>
</svg>
