<?xml version="1.0" encoding="iso-8859-1"?>
<!-- Generator: Adobe Illustrator 23.0.3, SVG Export Plug-In . SVG Version: 6.00 Build 0)  -->
<svg version="1.1" id="Layer_1" xmlns="http://www.w3.org/2000/svg" xmlns:xlink="http://www.w3.org/1999/xlink" x="0px" y="0px"
	 viewBox="475.283 141 562.659 512" style="enable-background:new 475.283 141 562.659 512;" xml:space="preserve">
<g>
	<polyline style="fill:#374046;" points="554.769,484.942 510.57,627.053 663.786,599.336 	"/>
	<g>
		<circle style="fill:#374046;" cx="754.414" cy="396.39" r="248.262"/>
		<circle style="fill:#FFFFFF;" cx="754.414" cy="396.39" r="208.43"/>
	</g>
	<g>
		<path style="fill:#374046;" d="M696.348,300.524l16.864,25.298c3.352,5.038,2.253,11.808-2.521,15.526L689.928,357.5
			c-4.506,3.469-5.8,9.711-3.046,14.686c6.096,10.96,11.873,23.883,40.468,52.515c28.596,28.632,41.555,34.372,52.515,40.468
			c4.975,2.754,11.217,1.46,14.686-3.046l16.152-20.764c3.719-4.773,10.488-5.872,15.526-2.521l26.102,17.398l29.363,19.577
			c5.135,3.423,6.676,10.275,3.503,15.567l-13.914,23.193c-3.693,6.269-9.656,10.876-16.654,12.868
			c-23.125,6.343-74.133,7.626-155.887-74.128s-80.476-132.767-74.133-155.892c1.992-6.998,6.6-12.961,12.868-16.654l23.193-13.914
			c5.292-3.174,12.144-1.632,15.567,3.503L696.348,300.524z"/>
	</g>
</g>
</svg>
