<?xml version="1.0" encoding="utf-8"?>
<!-- Generator: Adobe Illustrator 23.0.3, SVG Export Plug-In . SVG Version: 6.00 Build 0)  -->
<svg version="1.1" id="Layer_1" xmlns="http://www.w3.org/2000/svg" xmlns:xlink="http://www.w3.org/1999/xlink" x="0px" y="0px"
	 viewBox="0 0 524.3 512" style="enable-background:new 0 0 524.3 512;" xml:space="preserve">
<style type="text/css">
	.st0{fill:#1293F5;stroke:#4A4A4A;stroke-width:5;stroke-miterlimit:10;}
	.st1{fill:#FFFFFF;}
</style>
<ellipse transform="matrix(0.7071 -0.7071 0.7071 0.7071 -104.267 258.2773)" class="st0" cx="259.6" cy="255" rx="248.3" ry="248.3"/>
<path class="st1" d="M390.8,349l-14,23.3c-3.7,6.3-9.7,10.9-16.7,12.9c-23.2,6.4-74.3,7.6-156.3-74.3s-80.7-133.1-74.3-156.3
	c2-7,6.6-13,12.9-16.7l23.3-14c5.3-3.2,12.2-1.6,15.6,3.5l20.2,30.3l16.9,25.4c3.4,5.1,2.3,11.8-2.5,15.6L195,214.7
	c-4.5,3.5-5.8,9.7-3.1,14.7c6.1,11,11.9,24,40.6,52.7s41.7,34.5,52.7,40.6c5,2.8,11.2,1.5,14.7-3.1l16.2-20.8
	c3.7-4.8,10.5-5.9,15.6-2.5l26.2,17.4l29.4,19.6C392.4,336.8,394,343.7,390.8,349z"/>
</svg>
