<svg fill="#1293f5" xmlns="http://www.w3.org/2000/svg" viewBox="-49 141 524.283 512" xmlns:v="https://vecta.io/nano">
                            <path d="M210.635 147.738C73.523 147.738-37.627 258.89-37.627 396s111.15 248.262 248.262 248.262S458.896 533.11 458.896 396s-111.15-248.262-248.26-248.262zm131.15 342.27l-13.953 23.26a28.42 28.42 0 0 1-16.701 12.905c-23.2 6.36-74.342 7.648-156.326-74.337S74.102 318.693 80.463 295.503a28.42 28.42 0 0 1 12.905-16.701l23.26-13.953c5.307-3.183 12.178-1.637 15.61 3.512l37.08 55.62c3.36 5.052 2.26 11.84-2.528 15.57l-20.822 16.197c-4.52 3.48-5.817 9.738-3.054 14.727 6.113 11 11.906 23.95 40.582 52.663s41.672 34.47 52.663 40.582c4.99 2.762 11.248 1.464 14.727-3.054l16.197-20.822c3.73-4.787 10.518-5.89 15.57-2.528l55.62 37.08a11.6 11.6 0 0 1 3.512 15.612z">
                    </path>
                          </svg>