<?xml version="1.0" encoding="iso-8859-1"?>
<!-- Generator: Adobe Illustrator 23.0.3, SVG Export Plug-In . SVG Version: 6.00 Build 0)  -->
<svg version="1.1" id="Layer_1" xmlns="http://www.w3.org/2000/svg" xmlns:xlink="http://www.w3.org/1999/xlink" x="0px" y="0px"
	 viewBox="1576.658 141 545.686 512" style="enable-background:new 1576.658 141 545.686 512;" xml:space="preserve">
<g>
	<circle style="fill:#F6412D;" cx="1847.748" cy="396.39" r="248.262"/>
	<circle style="fill:#FFFFFF;" cx="1847.748" cy="396.39" r="208.43"/>
</g>
<g>
	<path style="fill:#F6412D;" d="M1789.683,300.524l16.864,25.298c3.352,5.038,2.253,11.808-2.521,15.526l-20.764,16.152
		c-4.506,3.469-5.8,9.711-3.046,14.686c6.096,10.96,11.873,23.883,40.468,52.515c28.596,28.632,41.555,34.372,52.515,40.468
		c4.975,2.754,11.216,1.46,14.686-3.046l16.152-20.764c3.719-4.773,10.488-5.872,15.526-2.521l26.102,17.398l29.363,19.577
		c5.135,3.423,6.676,10.275,3.503,15.567l-13.914,23.193c-3.693,6.269-9.656,10.876-16.654,12.868
		c-23.125,6.343-74.133,7.626-155.887-74.128s-80.476-132.767-74.133-155.892c1.992-6.998,6.6-12.961,12.868-16.654l23.193-13.914
		c5.292-3.174,12.144-1.632,15.567,3.503L1789.683,300.524z"/>
	<path style="fill:#F6412D;" d="M1948.209,388.502c-2.522,0-4.567-2.045-4.567-4.567c-0.048-42.854-34.776-77.583-77.631-77.631
		c-2.522,0-4.567-2.044-4.567-4.566c0-2.522,2.045-4.567,4.567-4.567c47.896,0.053,86.711,38.867,86.764,86.764
		C1952.776,386.458,1950.731,388.502,1948.209,388.502z"/>
	<path style="fill:#F6412D;" d="M1920.81,388.502c-2.522,0-4.567-2.045-4.567-4.567c-0.033-27.729-22.503-50.199-50.232-50.232
		c-2.522,0-4.567-2.044-4.567-4.566s2.045-4.567,4.567-4.567c32.771,0.038,59.327,26.594,59.365,59.365
		C1925.377,386.458,1923.332,388.502,1920.81,388.502z"/>
	<path style="fill:#F6412D;" d="M1893.411,388.502c-2.522,0-4.567-2.045-4.567-4.567c-0.015-12.604-10.229-22.817-22.833-22.833
		c-2.522,0-4.567-2.045-4.567-4.567s2.045-4.567,4.567-4.567c17.646,0.02,31.945,14.32,31.966,31.966
		C1897.978,386.458,1895.933,388.502,1893.411,388.502z"/>
</g>
</svg>
